<svg xmlns="http://www.w3.org/2000/svg" width="200" height="200" class="icon" viewBox="0 0 1027 1024"><path fill="#CC311B" d="M3.853 665.638a51.2 83.2 63.409 1 0 148.799-74.484 51.2 83.2 63.409 1 0-148.8 74.484"/><path fill="#CF4B1B" d="M70.884 536.138a44.8 83.2 58.06 1 0 141.208-88.03 44.8 83.2 58.06 1 0-141.208 88.03"/><path fill="#D6671C" d="M185.594 411.675a51.2 76.8 58.06 1 0 130.346-81.26 51.2 76.8 58.06 1 0-130.346 81.26"/><path fill="#DB761B" d="M423.025 230.4c6.4 25.6-19.2 57.6-64 70.4-38.4 12.8-83.2 0-89.6-25.6s19.2-57.6 64-70.4 83.2 0 89.6 25.6"/><path fill="#DD7E1D" d="M467.825 390.4c19.2 25.6 12.8 70.4-19.2 96s-76.8 25.6-102.4 0c-19.2-25.6-12.8-70.4 19.2-96s76.8-25.6 102.4 0"/><path fill="#E6A325" d="M584.955 424.459a76.8 44.8 51.451 1 0 70.074-55.837 76.8 44.8 51.451 1 0-70.074 55.837"/><path fill="#E19021" d="M519.025 313.6c12.8 0 25.6 6.4 38.4 6.4 6.4-6.4 6.4-19.2 6.4-25.6 0-32-38.4-57.6-83.2-51.2s-70.4 38.4-64 70.4c0 6.4 6.4 12.8 6.4 19.2 19.2-12.8 57.6-25.6 96-19.2"/><path fill="#D5601D" d="M301.425 518.4c0-6.4 0-19.2 6.4-25.6-19.2-12.8-51.2-6.4-83.2 12.8-32 25.6-51.2 64-32 83.2 19.2 25.6 57.6 25.6 89.6 0 12.8-6.4 19.2-12.8 25.6-25.6-6.4-12.8-6.4-25.6-6.4-44.8"/><path fill="#0076B5" d="M448.625 704c-19.2 12.8-57.6 0-83.2-32-19.2-38.4-25.6-76.8-6.4-89.6s57.6 0 83.2 32c19.2 32 25.6 70.4 6.4 89.6"/><path fill="#003E82" d="M871.025 448c-12.8-25.6 12.8-57.6 57.6-76.8 38.4-19.2 83.2-12.8 96 12.8s-12.8 57.6-57.6 76.8-89.6 12.8-96-12.8"/><path fill="#00468A" d="M813.425 588.8c-12.8-19.2 6.4-57.6 44.8-76.8s76.8-19.2 89.6 0-6.4 57.6-44.8 76.8c-32 19.2-76.8 19.2-89.6 0"/><path fill="#055294" d="M704.625 704c-12.8-25.6 6.4-64 44.8-83.2s83.2-12.8 96 12.8-6.4 64-44.8 83.2-83.2 12.8-96-12.8"/><path fill="#125C9D" d="M551.025 646.4c-19.2-32-6.4-70.4 32-96 32-25.6 76.8-19.2 96 12.8 19.2 25.6 6.4 70.4-32 89.6-32 25.6-76.8 19.2-96-6.4"/><path fill="#004D90" d="M832.625 454.4c-12.8-25.6-57.6-25.6-89.6-6.4-12.8 6.4-19.2 12.8-25.6 25.6 6.4 19.2 12.8 38.4 6.4 64v12.8c19.2 12.8 51.2 12.8 83.2-6.4 25.6-25.6 44.8-64 25.6-89.6"/><path fill="#0E65A5" d="M499.825 729.6c-12.8 0-25.6-6.4-38.4-6.4v25.6c6.4 32 51.2 57.6 89.6 44.8s64-44.8 57.6-83.2V704c-25.6 19.2-64 32-108.8 25.6"/><path fill="#0A5B9B" d="M602.225 812.8c-6.4-25.6 19.2-57.6 64-70.4 38.4-12.8 83.2 0 89.6 25.6s-19.2 57.6-64 70.4-83.2 0-89.6-25.6"/></svg>