<svg xmlns="http://www.w3.org/2000/svg" width="128" height="128" class="icon" viewBox="0 0 1024 1024"><path fill="#009FE8" d="M1024.051 701.03V196.864A196.966 196.966 0 0 0 827.136 0H196.864A196.966 196.966 0 0 0 0 196.864v630.272A196.915 196.915 0 0 0 196.864 1024h630.272a197.12 197.12 0 0 0 193.843-162.1c-52.224-22.63-278.528-120.32-396.441-176.64-89.703 108.698-183.706 173.927-325.325 173.927S63.027 771.942 74.393 665.14c7.476-70.041 55.553-184.576 264.295-164.966 110.08 10.342 160.41 30.873 250.163 60.518 23.194-42.598 42.496-89.446 57.14-139.264H248.063v-39.424h196.915v-70.86H204.8v-43.367h240.128V165.632s2.15-15.974 19.814-15.974H563.2v118.118h256v43.418h-256v70.758h208.845a806 806 0 0 1-84.839 212.685C747.878 616.653 1024 701.03 1024 701.03zm-740.505 90.573c-149.658 0-173.312-94.464-165.376-133.939 7.833-39.322 51.2-90.624 134.4-90.624 95.59 0 181.248 24.474 284.057 74.547-72.192 94.003-160.921 150.016-253.081 150.016"/></svg>