<svg xmlns="http://www.w3.org/2000/svg" width="200" height="200" class="icon" viewBox="0 0 1070 1024"><path fill="#6DC23E" d="M401.306 0c20.126 53.67 38.422 109.17 50.62 165.28 10.368 45.74 20.126 93.922 25.615 142.103 2.44 50.62 0 99.412-25.615 134.785-12.807 20.126-38.423 38.423-71.357 45.741-86.604 17.687-185.405-15.247-267.13-40.862C76.236 434.85 38.423 419.602 0 404.355v-84.164c50.62 20.126 101.851 43.302 154.911 58.549 32.934 10.368 104.29 35.373 162.84 40.862 28.055 2.44 53.67 0 68.917-12.807 53.06-38.423-7.928-221.39-23.175-269.57-15.248-45.742-30.495-91.483-48.182-132.346h86.604c-.61 0-.61-4.879-.61-4.879M0 284.817c50.62 23.176 99.412 40.863 150.032 58.55 38.423 12.807 83.555 30.494 126.857 35.373 20.126 2.44 38.422 4.879 56.11 2.44 10.367 0 17.686-4.88 23.175-7.32 10.368-7.928 10.368-20.126 12.808-40.862 7.928-71.357-20.127-152.471-43.302-218.34-12.808-38.422-28.055-76.235-43.302-111.609h-40.863c20.126 45.742 40.863 91.483 56.11 137.225 10.368 35.373 50.62 167.719 32.934 200.653-20.127 10.368-89.044-4.88-106.73-10.368-30.495-7.929-58.55-20.127-86.604-30.495C91.483 284.817 45.742 264.081 0 243.954z"/><path fill="#F57A00" d="M744.672 0c-20.126 45.742-35.374 89.043-48.181 134.785s-23.176 93.923-30.495 139.664c-4.879 25.615-4.879 50.62-2.44 76.236 4.88 38.423 17.688 43.302 56.11 48.181 25.616 2.44 50.621-2.44 76.236-7.319 50.62-12.807 99.412-25.615 150.032-43.302 40.863-15.247 81.115-30.494 121.978-50.62v86.604c-45.742 20.126-89.044 38.423-134.785 50.62-35.374 12.808-78.676 25.616-121.978 35.374-40.862 7.928-81.114 10.368-117.098 2.44-38.423-7.93-65.868-23.176-84.164-45.742-12.808-17.687-20.126-38.423-25.615-65.868-12.808-81.115 15.247-172.598 38.422-251.883C633.063 73.796 645.87 35.373 658.068 0zm28.055 0c-25.616 58.55-45.742 117.098-58.55 175.647-7.928 35.374-17.686 76.236-20.126 114.66 0 17.686-4.879 50.62 7.929 65.867 10.368 12.808 40.862 12.808 56.11 12.808 43.301-2.44 91.482-17.687 124.416-28.055 53.67-17.687 117.099-40.863 187.845-73.797v-43.302c-43.302 20.127-89.043 40.863-142.103 60.99-28.055 10.367-58.55 20.125-89.044 30.493-17.686 4.88-81.115 20.127-101.85 7.929-4.88-25.615-4.88-53.67 2.439-81.115 7.928-43.302 25.615-89.043 35.373-124.417 12.808-40.862 30.495-78.675 50.62-114.659z"/><path fill="#0078C4" d="M0 607.447c48.181-20.126 99.412-35.373 147.593-45.741 48.18-12.808 96.362-23.176 147.592-25.615 28.055-2.44 56.11 0 83.555 4.879 23.175 4.879 40.862 12.807 56.11 23.175 17.686 12.808 28.054 30.495 35.373 56.11 15.247 53.67 4.879 104.29-4.88 157.35-7.928 32.935-15.247 65.868-25.615 99.412q-22.87 72.271-53.06 144.543h-86.604c28.055-71.356 60.989-144.543 81.115-215.9 10.368-40.862 25.616-93.922 23.176-137.224-2.44-20.126-4.88-32.934-15.247-43.302-17.687-15.247-50.62-15.247-81.115-12.808-17.687 2.44-35.374 4.88-50.62 7.929-38.424 4.879-71.358 15.247-98.802 23.176-65.868 20.126-111.61 35.373-152.472 53.06v-89.044zm0 121.978c48.181-20.127 93.923-40.863 139.664-53.67 58.55-17.687 132.346-35.374 193.334-25.616 12.808 2.44 23.176 4.88 28.055 10.368 4.88 7.929 7.319 17.687 7.319 35.374 0 60.989-20.127 129.906-40.863 187.845-17.686 48.181-38.423 93.923-58.549 139.664h-43.302c20.126-40.862 38.423-81.115 53.06-121.977 12.808-30.495 63.429-182.966 50.62-215.9-25.614-15.247-159.79 23.176-185.405 30.494-45.741 15.247-93.922 35.374-139.664 56.11v-43.302z"/><path fill="#F4C000" d="M1039.247 877.017c-32.934-32.934-65.868-68.917-99.411-101.85-2.44-2.44-4.88-4.88-4.88-10.369 0-4.879 2.44-7.928 4.88-10.368 23.175-23.176 48.18-43.302 71.356-65.868 7.929-7.928 10.368-15.247 7.929-25.615s-10.368-12.808-20.126-12.808c-111.61-17.686-223.829-38.423-335.438-56.11-12.808-2.439-28.055-4.878-38.423 0-12.808 7.93-4.88 25.616-4.88 35.374 20.127 111.61 38.424 226.268 58.55 337.878 2.44 7.928 2.44 15.247 10.368 20.126 10.368 7.928 17.687 4.879 23.176-2.44 25.615-25.615 50.62-50.62 76.236-73.796 2.44-2.44 4.879-4.88 7.928-4.88 2.44 0 4.88 0 7.929 2.44 32.934 32.934 63.428 65.868 96.362 96.363 7.928 7.928 15.247 17.686 25.615 17.686 12.808 0 20.126-7.928 28.055-15.247 30.494-28.055 58.549-58.55 89.043-86.604 4.88-4.879 12.808-12.807 12.808-20.126-1.83-8.539-9.148-16.467-17.077-23.786M925.198 978.258c-32.934-35.373-68.917-71.356-101.85-106.73-7.93-7.928-12.808-12.807-25.616-12.807-10.368 0-17.687 4.879-25.615 10.368-17.687 17.686-38.423 35.373-56.11 50.62l-4.879 4.88s0-2.44-2.44-7.93c-15.247-89.043-28.054-180.526-43.301-269.57 0-7.928-2.44-10.367 0-12.807s4.879 0 12.807 0c86.604 15.247 175.648 32.934 261.642 48.181 7.928 2.44 10.368 2.44 10.368 2.44l-7.929 7.928-53.06 53.67c-4.88 4.88-7.929 10.369-7.929 20.127 0 7.928 4.88 12.807 10.369 20.126 35.373 38.423 73.796 73.796 109.17 111.61-22.567 26.834-50.621 51.84-75.627 79.894"/></svg>