<svg xmlns="http://www.w3.org/2000/svg" width="200" height="200" class="icon" viewBox="0 0 1024 1024"><path fill="#0165B5" d="M877.714 0v560.689C849.481 797.915 695.32 952.369 415.256 1024 202.728 963.048 88.698 820.053 73.143 595.042V230.229c73.508-69.144 177.615-124.806 312.271-166.985C520.046 21.065 684.13 0 877.714 0M719.311 276.821q-335.03 56.32-469.723 283.356c-114.42 202.532-55.662 331.946 176.347 388.242-155.55-84.626-189.318-188.27-101.327-310.955 87.99-122.66 219.55-194.023 394.728-214.04V276.846zm0-208.189c-96.06 10.411-215.771 74.801-359.131 193.22-96.939 85.991-157.55 172.105-181.833 258.291 63.975-96.329 148.138-172.739 252.489-229.205Q587.36 206.203 719.31 189.269V68.608z"/><path fill="#E70013" d="M907.362 572.904c-8.778 105.082-48.86 197.266-120.272 276.602C689.2 958.269 589.312 983.113 487.62 1024c387.73-61.733 463.238-344.771 463.238-451.096V186.149l-43.495-39.863z"/></svg>