<svg xmlns="http://www.w3.org/2000/svg" width="200" height="200" class="icon" viewBox="0 0 1024 1024"><path fill="#1C1F8A" d="M706.56 1024c-11.947-17.067-25.6-34.133-37.547-49.493C578.56 865.28 486.4 757.76 397.653 648.533c-29.013-35.84-37.546-78.506-25.6-122.88 8.534-30.72 34.134-46.08 61.44-61.44 61.44-32.426 126.294-37.546 194.56-34.133 54.614 3.413 83.627-23.893 93.867-73.387 11.947-54.613-5.12-98.986-51.2-119.466-25.6-11.947-54.613-17.067-81.92-18.774-51.2-1.706-102.4 1.707-153.6 3.414h-11.947V25.6h295.254c124.586 1.707 211.626 78.507 226.986 206.507 6.827 51.2 5.12 100.693-10.24 150.186-20.48 69.974-63.146 121.174-124.586 155.307-52.907 29.013-109.227 40.96-168.96 40.96-5.12 0-18.774 0-23.894 8.533s0 22.187 6.827 29.014c30.72 32.426 64.853 64.853 97.28 97.28 64.853 63.146 128 128 192.853 191.146 42.667 44.374 18.774 98.987 15.36 119.467zM98.987 361.813H312.32V1024H98.987z"/><path fill="#EC1B23" d="M78.507 126.293a126.293 126.293 0 1 0 252.586 0 126.293 126.293 0 1 0-252.586 0"/></svg>