<svg xmlns="http://www.w3.org/2000/svg" width="200" height="200" class="icon" viewBox="0 0 1024 1024"><path fill="#234591" d="M1010.425 674.452c0 45.038-36.508 81.548-81.546 81.548H578.222c-45.037 0-81.547-36.51-81.547-81.548V323.797c0-45.037 36.51-81.547 81.547-81.547h350.657c45.038 0 81.546 36.51 81.546 81.547z"/><path fill="#F1C01F" d="M526.075 674.452c0 45.038-36.509 81.548-81.546 81.548H93.873c-45.037 0-81.547-36.51-81.547-81.548V323.797c0-45.037 36.51-81.547 81.547-81.547h350.656c45.038 0 81.546 36.51 81.546 81.547z"/><path fill="#43A159" d="M496.675 323.797v350.655c0 17.368 5.446 33.454 14.7 46.681 9.254-13.227 14.7-29.313 14.7-46.681V323.797c0-17.368-5.446-33.453-14.7-46.681-9.254 13.228-14.7 29.314-14.7 46.681"/><path fill="#F9F9F9" d="M145.029 624.835c17.873-19.975 36.912-43.322 57.09-69.966l-26.021-16.07c-16.705 22.575-34.291 44.142-52.753 64.709 8.106 6.188 13.929 14.902 21.684 21.327"/><path fill="#F9F9F9" d="M427.223 483.903H286.245v-81.225h-29.698v81.225H152.065l13.597-103.05q112.71-2.148 240.092-13.955l-9.661-27.91q-121.3 13.6-256.91 16.459l-20.753 155.65h138.117v109.849c0 .896-.032 1.754-.079 2.599-.186 3.369-.756 6.316-1.682 8.876h31.154c.199-2.824.305-5.807.305-8.971V511.097h140.978z"/><path fill="#F9F9F9" d="M400.085 631.469c8.855-5.691 16.451-13.024 24.418-19.718-15.931-18.887-32.912-37.846-50.904-56.871-6.282 7.594-13.458 14.293-19.612 22.016 16.178 18.306 31.555 36.5 46.098 54.573m461.667-248.193c-8.373.574-16.88 1.338-25.048-.097v186.908a214 214 0 0 1 25.048-6.808zM642.055 371.31h-25.762m0-24.807v24.807h25.762v-.476h136.326v45.084H642.055v-12.717h-25.762v92.151c0 56.866-8.151 102.215-24.405 136.112 10.223-2.057 20.588-4.135 29.767-3.135 13.588-35.699 20.4-80.13 20.4-133.335V440.25h136.326l25.762.159v-93.906z"/><path fill="#F9F9F9" d="M743.674 486.766v-34.708h-24.689v34.708h-59.397v150.996h24.331V509.666h35.066v128.141c8.229-.626 16.459 1.056 24.689 1.007V509.666h37.927v88.023c0 1.8.768 4.833.768 4.833v-4.65 4.65h1.329-1.329v32.589c1.974-.163 3.836-.461 5.564-.92 11.994-3.187 18.001-13.558 18.001-31.136V486.766zm150.28-136.718v270.541c0 3.69 16.746 9.839 26.074 9.839.009-.543.048-1.056.048-1.609V350.048z"/></svg>