<svg xmlns="http://www.w3.org/2000/svg" width="200" height="200" class="icon" viewBox="0 0 1024 1024"><path fill="#BF0007" d="M896 0H128A128.375 128.375 0 0 0 0 128v768a128.375 128.375 0 0 0 128 128h768a128.375 128.375 0 0 0 128-128V128A128.375 128.375 0 0 0 896 0M249.583 800.017 268.8 601.6h-89.6c-32.017 0-51.2-19.217-44.817-51.2l6.417-64s0-51.2 12.8-102.4c6.417-57.617 38.4-172.817 211.217-172.817H576v6.417c0 6.417-6.417 12.8-19.217 12.8H384c-121.617 0-140.8 108.817-147.217 160.017-12.8 51.2-12.8 95.983-12.8 95.983l-6.383 57.617s0 12.766 12.8 12.766h38.4L288.017 307.2h76.8c6.383 0 12.766 6.417 12.766 12.8l-38.366 486.4h-89.634v-6.417zm556.817 0c-38.4 0-121.617-19.217-140.8-102.4-6.417-32.017 0-76.8 0-76.8h96.017L755.2 678.4c-6.417 64 38.4 83.217 51.2 89.6zM889.617 601.6H588.8c-44.817 108.817-179.2 198.417-224.017 198.417V768c38.434-19.217 102.4-89.6 128-166.4H377.617L384 556.783h121.617l12.766-128H396.8l6.417-51.2H524.8l6.417-76.8H614.4c6.417 0 12.8 6.417 12.8 12.834l-6.417 63.966H729.6c32.017 0 51.2 19.217 51.2 44.817L768 556.817h121.617zM652.8 428.783h-38.4l-12.8 128h70.417L678.4 448c0-12.8-6.417-19.217-25.6-19.217"/></svg>