<svg xmlns="http://www.w3.org/2000/svg" width="200" height="200" class="icon" viewBox="0 0 1024 1024"><path fill="#FFF" d="M97 512a415 415 0 1 0 830 0 415 415 0 1 0-830 0"/><path fill="#0E3695" d="M183 260h658c15.8 20.6 29.8 42.6 41.6 66H141.4c11.8-23.4 25.8-45.4 41.6-66"/><path fill="#F76510" d="M140.5 698h742.2c-11.7 23.3-25.6 45.4-41.3 66H181.8c-15.8-20.6-29.6-42.7-41.3-66"/><path fill="#141414" d="M512 907c218.2 0 395-176.8 395-395S730.2 117 512 117 117 293.8 117 512s176.8 395 395 395m0 20C282.8 927 97 741.2 97 512S282.8 97 512 97s415 185.8 415 415-185.8 415-415 415"/><path fill="#0E3695" d="M282.7 574v-96H309v10.7c1.6-5.5 5.7-8.8 12.3-9.8v-24.6H277v-7.4h44.3V414h31.2v32.8h44.3v7.4h-44.3v24.6h12.3c18-.5 26.8 6.6 26.2 21.3v71.4c0 9.8 2.5 17.2 7.4 22.1-24.1 0-35.3-7.7-33.6-23v-73c0-7.7-3.8-11.5-11.5-11.5h-.8v124.7h-31.2V486.2h-.8c-5.5 0-9.3 2.5-11.5 7.4v78.8c2.2 17-8.5 24.9-32 23.8q5.7-7.5 5.7-22.2m155.9-37h36.1q-8.25 18.9-24.6 49.2c-6 10.9-13.7 17.8-23 20.5-8.8 3.3-24.3 4.1-46.8 2.5 14.8-7.7 25.4-15.9 32-24.6 5.5-7.6 14.3-23.5 26.3-47.6m-3.3-120.5h36.1c-3.3 7.7-7.9 17.8-13.9 30.4-4.9 10.9-10.9 17.5-18 19.7-6.6 2.7-21.1 3.6-43.5 2.5 9.8-4.4 18.6-12.9 26.2-25.4 4.9-9.5 9.3-18.5 13.1-27.2M432 478h36.1c-3.3 7.1-8.2 17.5-14.8 31.2-4.9 10.4-11.2 17-18.9 19.7-6.6 2.7-20.5 4.1-41.8 4.1q12.3-5.7 24.6-24.6c6.6-13.7 11.6-23.9 14.8-30.4m257.6-64-.8 19.7h55.8v8.2h-55.8l-.8 14.8h31.2c15.9-.5 23.5 5.2 23 17.2v24.6c1.1 12.6-7.7 18.3-26.2 17.2h-69q-13.95.75-15.6-9v9h-26.2v-59.9h26.2v9.8c1.1-6 6.6-9 16.4-9h7.4l.8-14.8h-50.9v-8.2H656l.8-19.7h32.8zm-96.8 195.2h-28.7v-86.1H551c7.7-8.2 15-27.3 22.1-57.4h29.5c-1.6 7.7-4.6 19.4-9 35.3-.5 1.1-.8 1.9-.8 2.5zm46-27v-42.7h29.5v39.4q-3.3 19.65 18 18c10.4.5 18.6-3 24.6-10.7-2.2 15.9-15.3 23.8-39.4 23.8-22.4.1-33.3-9.2-32.7-27.8m-34.5-35.3h27.1c0 6-.3 13.4-.8 22.1v12.3c1.6 18-10.4 26.2-36.1 24.6 3.8-4.9 6.3-10.9 7.4-18 1.6-5.5 2.4-19.1 2.4-41M577.2 414h31.2c-1.6 5.5-4.1 12.9-7.4 22.1-1.6 3.8-2.7 7.1-3.3 9.8q-4.95 21.3-45.9 18.9c8.8-7.6 17.2-24.5 25.4-50.8m134.6 132.9h27.1c.5 34.5 3.3 54.1 8.2 59.1-23.5 1.1-34.7-7.4-33.6-25.4-.5-2.7-1.1-8.2-1.6-16.4v-17.3zm36.1-13.1H598.6v-8.2h149.3zm-71.4 8.2h23.8c.5 25.2 3 39.6 7.4 43.5-20.2.5-30.1-5.7-29.5-18.9-1.2-7.7-1.7-15.9-1.7-24.6m28.7-78h-4.1v44.3h3.3c7.7.5 11.5-3.3 11.5-11.5v-21.3c0-7.6-3.6-11.5-10.7-11.5m-38.6 0v44.3h13.1V464zm-35.2 6.6V501c1.6 5.5 4.6 7.9 9 7.4h4.9V464h-4.1c-4.9 0-8.2 2.2-9.8 6.6"/></svg>