<svg xmlns="http://www.w3.org/2000/svg" width="200" height="200" class="icon" viewBox="0 0 1024 1024"><path fill="#FFF" d="M0 512a512 512 0 1 0 1024 0A512 512 0 1 0 0 512"/><path fill="#3775B3" d="M593.77 561.574c-.422-57.405-96.678-103.304-215.04-102.46-69.271.481-130.711 16.835-169.744 41.803 31.383-12.65 71.59-20.39 115.502-20.691 100.773-.693 182.723 38.099 183.055 86.648.3 48.55-81.137 88.486-181.911 89.179-21.384.18-41.954-1.476-61.079-4.608 33.4 10.12 73.036 15.842 115.532 15.54 118.392-.843 214.046-48.037 213.684-105.411m-64-289.732c-140.047 32.316-272.263 103.484-324.156 154.323 61.139-32.829 147.155-61.621 244.495-78.848 198.777-35.148 369.243-8.734 380.838 58.94 3.313 19.546-6.927 40.358-27.95 60.958 63.7-34.244 100.292-69.36 94.45-107.46-10.421-67.885-112.279-146.853-367.677-87.943"/><path fill="#3775B3" d="M456.704 405.143c-98.936 7.409-187.874 33.19-254.133 69.632 47.646-15.39 102.882-26.293 162.093-30.72 187.814-14.095 344.938 41.773 350.931 124.777 6.024 83.004-141.372 161.732-329.186 175.797-105.411 7.89-201.155-6.265-265.938-34.877 64.602 66.29 205.342 105.533 365.025 93.576 214.288-16.053 381.53-118.242 373.58-228.171-7.951-109.96-188.085-186.097-402.372-170.014"/></svg>