<svg xmlns="http://www.w3.org/2000/svg" width="200" height="200" class="icon" viewBox="0 0 1024 1024"><path fill="#99F" d="M255.05 514.04h.27v.5h-.09v-.07l-.18.06v-.09l.03-.01v-.33h-.03zm.18.35v-.06h-.05v.07zm-.05-.3h.05v.06h-.05zm0 .12h.06v.07h-.06zm.75.18h.12v.08h-.12zm-1.22.45-.01.05c-.02 0-.03.01-.05.01h-.05c-.02 0-.05 0-.07-.01s-.04-.02-.05-.03c-.02-.02-.02-.03-.03-.05 0-.02-.01-.04 0-.07 0-.03.01-.05.03-.07.01-.02.03-.04.05-.06a.1.1 0 0 1 .07-.03c.03-.01.05-.01.08-.01s.06 0 .09.01v.06a.2.2 0 0 0-.09-.02c-.03 0-.06.01-.09.04-.02.01-.02.02-.03.04s-.01.03-.02.04v.05c.01.04.03.06.07.07.02 0 .05 0 .08-.01 0 0 .01 0 .02-.01m.02.07h.05l.05-.17c.02-.01.04-.03.07-.03.02 0 .03 0 .03.01.01.01 0 .04 0 .06l-.03.14h.05l.04-.15v-.04c0-.03-.02-.05-.04-.05-.02-.01-.05 0-.07.01-.02 0-.03.01-.04.02l.03-.11h-.05c-.01-.02-.09.31-.09.31m.26-.01.06-.24h.05l-.06.24zm.07-.27.01-.05h.06l-.01.05zm.14.06v-.02h-.05l-.06.24h.05l.05-.17c.01-.01.03-.02.04-.02.02-.01.04-.01.05 0 .01 0 .02.01.02.04l-.04.16h.05l.04-.17c.01-.03 0-.05-.02-.07-.02-.01-.03-.01-.06-.01-.02-.01-.04 0-.07.02m.22.03.02-.05c.01 0 .03-.01.05-.01h.05c.03 0 .06 0 .08.01s.03.03.02.05l-.05.19h-.05l.03-.13c-.01 0-.03.01-.04.02-.02 0-.04.01-.06.02-.03.01-.05.02-.05.04 0 .01.01.02.02.03.01 0 .03.01.05 0 .02 0 .03-.01.04-.02l-.01.04c-.03.01-.07.01-.1.01-.03-.01-.06-.03-.06-.05s.01-.03.01-.03c0-.01.01-.01.02-.02.03-.02.05-.03.09-.04.03-.01.05-.01.06-.02.04-.01.06-.02.05-.05-.01-.01-.02-.01-.03-.01h-.03c-.02 0-.03 0-.06.01-.01 0-.03 0-.05.01m.69-.12c-.02.01-.03.02-.04.03 0 .01-.01.02-.01.03s0 .02-.01.02l-.06.25h-.26c-.02-.01-.04-.02-.04-.05v-.04l.06-.24h.13l-.06.24v.01c0 .01.03.02.04 0v-.01l.07-.24zm.62.08h-.02s-.01.01-.01.02 0 .01.01.02h.09c.02.01.05.03.06.05 0 .01.01.02.01.03v.03c0 .01 0 .02-.01.03-.01.02-.02.03-.04.04-.01.01-.03.01-.04.02h-.24l.02-.09h.2l.01-.01v-.02h-.07c-.01 0-.02 0-.03-.01-.02-.01-.03-.02-.05-.03-.01-.02-.02-.03-.02-.05s0-.04.02-.06l.03-.03c.01-.01.02-.01.03-.02.01 0 .03-.01.04-.01h.21l-.02.09zm-.71.25h.12l.07-.26h.01c.01 0 .02 0 .02.01.01.01.01.02.01.02l-.06.22h.12l.07-.24c0-.01.01-.01.02-.01s.02 0 .02.01c0 0 .01.01.01.02v.02l-.06.21h.13l.06-.22v-.03c0-.03-.01-.05-.04-.07-.01 0-.02-.01-.02-.01h-.31c-.02 0-.03 0-.05.01-.01 0-.02.01-.03.02-.03.03-.03.07-.05.1zm.36-.52h-.06v-.07h.1l.02-.02h.14l-.01.02h.31v.14c0 .01 0 .02-.01.02 0 0-.01.01-.01.02-.01.01-.02.01-.03.01h-.33l.04-.06h.21v-.07h-.23l-.06.09c0 .01-.01.01-.01.02-.02.02-.05.02-.07.02h-.07l.06-.1s.01-.01.01-.02m-.31-.29h-.17l.05.09c0 .01.01.02.02.03v.02c0 .03-.02.05-.05.05h-.1v.22h-.12v-.38h.1l-.02-.03h-.12v-.06h.24v-.04h.14v.04h.24v.06h-.11l-.02.03h.1v.3c0 .03-.01.05-.03.07-.02.01-.04.02-.07.02h-.01v-.22h-.09c-.02 0-.04 0-.05-.02 0-.01-.01-.02-.01-.03v-.01s0-.01.01-.02c0-.01.07-.12.07-.12m-.23.4h.24c.02 0 .03 0 .03-.01.01-.01.02-.02.02-.04v-.15h-.29zm.88-.29.12-.12.01-.06h-.29l.02-.03h-.15l-.03.05c-.01.02-.02.03-.03.04l-.03.03c-.01.01-.02.02-.03.02h-.01l-.01.04h.04c.02 0 .03-.01.04-.01l.07-.04.08.07-.01.01c-.01.01-.02.02-.03.02-.01.01-.03.01-.04.01h-.14l-.03.06h.26c.02 0 .04 0 .05-.01.01 0 .02 0 .03-.01.02.01.03.01.03.01.02 0 .03.01.05.01h.21l-.02-.06h-.16c.02-.01 0-.02 0-.03m-.9-.05v.08h.03s.01 0 .01-.01zm.33 0-.04.06v.01h.04zm.47-.03-.04-.03h.08c0-.01-.04.03-.04.03m-1.29.18v-.05c0-.01 0-.01.01-.01h.09v-.06h-.09v-.06h.3v.06h-.1v.06h.11v.05h-.12v.02h.06l.08.19h-.11s-.01-.02-.02-.03l-.03-.08-.02.07c0 .01-.01.02-.02.03-.02.02-.04.02-.07.02h-.07v-.05h.02c.01 0 .02 0 .02-.01 0 0 0-.01.01-.02l.03-.13h-.09zm-.83.02h-.06v-.06h.05v-.05c-.01.01-.02.02-.04.02-.01 0-.02.01-.04.01v-.03c.02-.01.03-.03.04-.04.01-.02.02-.04.02-.06.01-.02.01-.04.01-.06v-.04h.12c0 .02-.02.05-.02.06h.07v.06h-.09c-.01.02-.02.02-.02.03h.12v.06h-.06v.04h.06v.06h-.06v.13h.07v.06h-.13c-.02 0-.03-.01-.03-.02-.01-.01-.01-.02-.01-.04zm.18-.31h.34v.19c0 .02 0 .04-.01.05-.01.02-.04.02-.06.02h-.16v.03h.1l.03.05.02-.05h.09l-.05.13.05.08h-.12l-.12-.19v.12h.07l.04.06h-.16c-.02 0-.03 0-.04-.02-.01-.01-.01-.03-.01-.05zm.24.2v-.04h-.14v.04zm0-.09v-.04h-.14v.04zm.41-.11h.1l.04.11h-.05c-.02 0-.05 0-.06-.02zm.29 0-.02.08s0 .01-.01.01c-.01.01-.02.02-.03.02h-.07l.03-.11z"/><path fill="#F51226" d="M348.75 596.54h18.79c4.7 0 10.96-1.57 15.66-6.26 7.83-4.7 12.52-14.09 17.22-20.35 9.39-17.22 15.66-36.01 20.35-56.36 1.57-9.39 4.7-17.22 4.7-26.62 0-4.7 1.57-10.96 3.13-15.66 0-6.26 1.57-12.52 3.13-18.79 0-1.57 0-9.39 1.57-10.96 3.13-7.83 10.96-4.7 14.09 0l4.7 9.39 79.85 205.09c-7.83 10.96-15.66 23.48-21.92 29.75-9.39 7.83-20.35 15.66-32.88 15.66-7.83 0-15.66 0-23.48-3.13-32.88-12.52-72.02-54.8-92.37-84.54-.02 0-12.54-17.22-12.54-17.22"/><path fill="#012E81" d="M397.68 718.66c-4.7 0-10.96-1.57-14.09-1.57-17.22-3.13-34.44-7.83-51.66-14.09-12.52-4.7-25.05-10.96-36.01-17.22-26.61-14.09-51.66-32.88-70.45-56.36-12.52-14.09-23.48-29.75-34.44-45.4-6.26-9.39-10.96-18.79-17.22-28.18l-7.83-10.96-7.83-12.52c-6.26-12.52-14.09-25.05-18.79-37.57l-12.52-28.18-10.96-25.05c-4.7-15.66-12.52-32.88-17.22-50.1L92.4 375.8l-21.92-70.45-6.26-18.79 201.96 54.8 1.57 18.79 4.7 37.57c6.26 39.14 15.66 79.85 28.18 117.42 6.26 20.35 15.66 40.71 23.48 59.49l4.7 9.39c10.96 23.48 25.05 46.97 42.27 67.32 14.09 17.22 29.75 29.75 48.53 42.27 9.39 6.26 18.79 9.39 28.18 14.09l12.52 4.7-4.7 3.13c-6.26 1.57-15.66 3.13-21.92 3.13z"/><path fill="#077A8D" d="M444.25 418.06c1.57-1.57 1.57-1.57 3.13-1.57 56.36-1.57 112.72 0 167.52 0 4.7 0 9.39 1.57 14.09 3.13 17.22 7.83 25.05 25.05 31.31 42.27l93.94 233.27c1.57 4.7 1.57 14.09 0 18.79-3.13 14.09-20.35 20.35-32.88 20.35H619.59c-10.96 0-25.05-3.13-34.44-9.39-7.83-6.26-14.09-18.79-20.35-34.44l-100.2-245.8-4.7-9.39c-3.13-4.7-6.26-7.83-9.39-10.96 0 .01-6.26-6.26-6.26-6.26"/><path fill="#012E81" d="M812.16 737.44c-12.52 0-25.05-9.39-32.88-18.79-1.57-3.13-6.26-10.96-9.39-20.35l-93.94-234.84-6.26-15.66c-3.13-7.83-9.39-18.79-17.22-25.05-1.57-3.13-1.57-3.13-6.26-4.7h162.82c6.26 0 12.52 0 18.79 1.57 20.35 7.83 28.18 28.18 36.01 45.4l95.5 241.1c1.57 6.26 1.57 10.96-1.57 17.22-6.26 12.52-23.48 12.52-36.01 12.52H812.16z"/></svg>