<svg xmlns="http://www.w3.org/2000/svg" width="200" height="200" class="icon" viewBox="0 0 1024 1024"><path fill="#00908C" d="M283.776 257.12h712c23.296 6.752 30.048 22.048 27.456 42.112l-212.8 492.224c-11.712 15.904-28.256 26.496-51.872 29.248H21.12c-19.392-1.92-25.28-18.4-17.664-49.472l205.696-475.68c17.408-23.456 42.368-36.128 74.624-38.464z"/><path fill="#E60012" d="M284.48 257.12h210.56c-32.256 2.368-57.248 15.04-74.624 38.496L214.72 771.2c-7.648 31.04-1.76 47.488 17.664 49.408H21.824C2.4 818.72-3.456 802.272 4.16 771.2l205.728-475.648c17.408-23.456 42.368-36.16 74.592-38.4z"/><path fill="#00508E" d="M495.04 257.12h259.104c-32.224 2.368-57.216 15.04-74.592 38.496L473.856 771.2c-7.648 31.04-1.76 47.488 17.664 49.408H232.384c-19.392-1.888-25.28-18.336-17.632-49.408l205.664-475.68c17.408-23.456 42.368-36.128 74.624-38.464v.032z"/><path fill="#FFF" d="M311.296 460.896h36.544l.416 16.224h32.64v31.456h-48c-7.808 13.12-23.136 18.368-39.296 14.4l-.16-25.376c13.536-1.6 19.104-12.832 17.824-36.704zm458.048 54.976h-27.136l-22.56-33.504c-1.984 1.152-2.528 5.12-4.48 6.24-3.296 1.856-6.24.48-9.536 2.336l.224 146.784c9.408 6.08 6.304 13.856 7.008 23.2 7.52-1.504 12.288.8 19.808-.704 4.288-14.496 13.856-31.168 18.816-46.592 1.152-3.552-.544-7.36.448-10.72h-30.08l.544-28.384 35.456.32c0-5.92.672-17.376.672-23.328H721.92v-28.928l106.496 1.728-.352 27.296-35.104 1.184-.704 23.52 33.536-.512.192 25.76-35.488.48c-3.168 0-1.152 6.88-3.104 9.824v2.24c4.544.576 9.984-1.664 14.112 1.76 3.84 3.136 1.472 10.976 4.608 16.16 5.472 8.992 7.2 20.896 22.816 22.496l-.192 33.28h-23.264c-11.2-14.496-22.528-22.88-27.104-44.736l-4.512 2.24a90.43 90.43 0 0 1-24.832 42.432h-33.888c-1.28-2.88.64-8.736.128-9.984-.864-2.048-4.256 1.28-9.184-1.12-1.44 8.096 1.216 6.816-2.4 11.168-10.976-.096-21.024.32-30.304-1.152-5.76-.896.32-8.256-5.44-9.312-14.816-2.72-44.032-.64-65.728-.704v-29.12c8.192-1.408 6.88 1.728 11.296-1.824V466.752c9.76.768 19.552.128 29.344.864.768 3.744-.576 9.856.16 13.632 1.888-1.248 7.456 2.56 7.68.224 1.344-14.08 30.496-17.696 58.336-14.912 5.984.608-.512-4.928 6.08-5.248 10.816-.544 22.304-1.824 33.888-1.152 5.12 11.52 7.872 19.68 20.32 24.576v31.232l.064-.096zm29.344-53.568h31.616v4.48c7.232 19.456-11.2 37.248-20.672 47.872l-26.56.16-.192-29.664c11.456-2.08 11.936-4.096 15.808-11.648zm-399.488 2.24h25.248l.832 17.888c18.08-17.632 42.848-19.52 89.024-16.448l.256 93.568c0 12.704-11.648 17.696-12.864 19.424l-80.064-.8.352 67.328c2.24 3.904 5.024 6.944 8.64 6.912l22.944-.16-.32 31.232-49.28-.192c-4.384-.544-5.76-4.064-5.76-8.896l1.024-209.92-.032.096zm250.688 28.064c-5.44 11.328-5.856 23.808-5.44 42.688 13.216-1.408 20.64-6.016 27.776-13.408-.768-9.664.64-19.264-.128-28.928-6.784 0-15.424-.352-22.208-.352m-221.92 4.736v28.224c2.304-2.24 5.568-3.2 7.808-5.44 18.624-15.552 26.048-7.424 41.92-11.648v-11.168h-49.728zM291.36 531.52H384v24.544h-36.16v26.912h33.888v28.896h-15.872c-7.264 13.856-19.04 30.08-15.808 46.88h24.832v26.784l-42.88 2.24c-21.6-12.224-19.52-41.632-18.08-75.872h-24.832v-28.96h24.832v-26.912h-22.592v-24.544zm186.336 23.552.544-13.344-48.192.192v13.44l47.616-.32zm166.464-3.392v37.856c9.76-2.272 18.336-4.48 28.096-6.72v-31.264zm-148.224 35.584h22.336c-.768 10.4-.224 22.624-.992 33.024-8.704 3.616-19.104 3.2-33.344 2.944v6.944c3.52 11.04 1.12 21.376 12.48 25.76 4.8-4.832 10.304-3.936 20.64-3.968-.736 10.432.32 20.832-.448 31.264-18.72.448-33.6 1.92-42.368-3.84-23.168-15.168-17.504-53.312-28.416-87.68.768-1.472 2.304-2.976 3.04-4.48h24.832c2.304 5.984 2.208 12.448 4.48 18.368 10.176-.48 11.904-2.08 17.792-4.96v-13.376zm150.08 20.096v35.712h24.864c-.768-11.904 0-23.2-.704-35.104-7.552 0-16.64-.64-24.128-.64h-.064z"/></svg>