<svg xmlns="http://www.w3.org/2000/svg" width="200" height="200" class="icon" viewBox="0 0 1024 1024"><path fill="#A9CB09" d="M232.18 454.53c.83.5 24 .67 24 .67l8-57.17h-24zm41.11-28.46 24.13-.58s-37.75 47.25-36.75 47.25 20.75 13 20.75 13l2.75-3.25-13.75 100.75h25l5.25-43.75 50.75-.5-5 44.25h24l19.25-138.75-75.5.25 14.75-18.67h62.5l3.25-21.33h-48.75l5-6-20.25-13-14.25 17-39.75 1.75z"/><path fill="#FFF" d="M309.74 464.65s52-.56 52 0-2 16.81-2 16.81l-50.75.44zm-3 39.24s52-.56 52 0-2 16.81-2 16.81l-50.75.44z"/><path fill="#A9CB09" d="M117.43 610.87h25.25L167.43 428s8-8.75 20-8l10.75-.05-16.75 121.55s0 25-26 30.5l8 20.5s33.5-6.5 39.5-39l10-72 13 .5s-10.5 74.5-11.5 87.5c0 0-1 33 44.5 37.5 0 0 301 4.75 302.5 3.88s26 3.13 25.5-58.88c0 0 7-50.5 10-62.5l37.5-.5 3.5-22h-166.5l-3 20-.5 4.5 102.5-1.5-13 91s-7.5 10.5-30 5.5c-3.5-.5-246.5 1.5-246.5 1.5s-55.5.5-37.5-43l10.5-83.5-39-.5 10.5-66.5s-82.5-8.5-84 33l-24 186"/><path fill="#A9CB09" d="M398.47 582.86h25.37l7-86.75 37-38.25-21.25-15.25 37.75-42-20.25-14.5-52.25 57.5 20.75 12.75-47.25 50.5 18.5 12.25zm91.37-163.17h150.17l4.33-22.5H493.01z"/><path fill="#0084BD" d="M643.43 452.4c.38 0 61.75-66.38 61.75-66.38l21.38 13.5-37.38 41.75-20.5 141.58h-24.33l16.33-118.46zm99.75 108.96 45-44s5.83-4.83-5.83-13l-10.67-8.5-62.17 37.17 23.83 26.67c0-.01 7.17 5.83 9.84 1.66m-37-35.33 61-32.5 1.17-1.17-5.83-4.33s-1.83-3.17-13.67 3.67c-11.83 6.83-39.33 20.83-39.33 20.83s-12.17 5.33-7.5 10.17c4.66 4.83 4.16 3.33 4.16 3.33"/><path fill="#0084BD" d="M808.51 457.03H707.84l3.17-23.83h100.5l5.5-36.33h25.17l-4.75 36.42 53.25.5-3 23.25h-53.75l-16 119s-2.75 37.69-36.75 37.47h-199s5.33-3.97 9-24.8l185.17.33s15 12.17 19-38.83z"/></svg>