<svg xmlns="http://www.w3.org/2000/svg" width="256" height="256" class="icon" viewBox="0 0 1024 1024"><path fill="#15BA12" d="M911.656 21.345a91.02 91.02 0 0 1 91.022 91.022v799.266a91.02 91.02 0 0 1-91.022 91.022H112.344a91.02 91.02 0 0 1-91.022-91.022V112.367a91.02 91.02 0 0 1 91.022-91.022zm-349.73 189.462a304 304 0 0 0-66.447-3.049c-31.425 1.661-62.85 6.6-94.253 16.544-54.568 18.181-104.152 46.284-145.5 90.93a276 276 0 0 0-64.466 110.775 255.8 255.8 0 0 0-9.921 51.245v19.843l.068 2.435c.205 1.684.865 2.526 3.232 2.526 0 9.921 0 18.204 1.66 26.465 3.3 19.82 8.261 39.662 14.883 57.867 16.52 41.324 42.985 77.687 76.049 107.452l5.94 5.598c7.964 7.054 15.883 12.583 23.824 19.205 3.3 1.661 3.3 3.3 3.3 6.6l-5.848 29.195a723 723 0 0 0-7.373 43.577c-1.661 3.3-1.661 8.26-1.661 11.56 0 4.96 3.3 6.599 6.599 6.599 3.322 0 8.283-1.639 11.605-3.3 18.159-9.899 34.702-19.82 52.884-31.403l7.85-4.96c5.007-3.3 9.786-6.6 15.292-9.922h4.961c18.205 6.6 38.025 11.583 57.867 14.882 11.583 1.661 24.804 1.661 38.025 3.3h29.764c16.544 0 34.725-1.639 52.907-4.96 26.465-4.962 52.907-13.2 79.371-23.143a329.1 329.1 0 0 0 119.035-82.671c28.103-31.403 47.946-66.128 59.528-105.814 4.96-18.181 8.26-36.363 9.922-54.545 3.3-43.008-4.961-84.332-23.166-124.017a48 48 0 0 0-4.391-10.832l-3.869-7.35a1.8 1.8 0 0 0-.25-.979l-1.138-1.342-.273-.979c-1.638 1.23-3.413 2.367-5.211 3.46l-11.06 6.303-5.233 3.458c-100.83 59.529-200.021 119.035-300.897 178.563-18.181 11.583-36.363 23.143-56.206 33.064a33.34 33.34 0 0 1-18.182 4.96c-9.921 1.662-18.204-3.299-23.142-14.881-16.543-39.686-33.064-77.71-49.607-117.374-3.3-8.283-4.96-16.543-6.6-24.803v-1.661c0-9.922 4.939-13.221 13.199-8.26l16.452 10.831c3.414 2.321 6.713 4.71 10.013 7.35 13.22 8.26 24.803 16.543 38.024 24.804 16.544 9.921 34.725 11.56 52.907 3.3 92.615-41.325 185.185-84.31 277.777-127.295 13.198-4.961 26.442-11.583 39.663-18.205a1.8 1.8 0 0 0 .978-.227l1.366-1.138.978-.273c-4.96-4.96-8.283-9.922-13.244-14.882-38.001-39.686-82.648-67.79-133.916-85.97l-9.102-3.346a296 296 0 0 0-53.703-13.198z"/></svg>