<svg xmlns="http://www.w3.org/2000/svg" width="200" height="200" class="icon" viewBox="0 0 1024 1024"><path fill="#00A344" d="M115.296 507.833c0-244.23 209.01-453.57 464.466-465.194h-23.224C254.636 42.64 10.79 251.967 10.79 507.833c0 255.865 243.845 465.192 545.747 465.192h23.224c-255.457-11.636-464.466-220.962-464.466-465.192"/><path fill="#00A344" d="M602.985 124.035H568.15c197.398 11.635 336.737 186.082 336.737 383.798 0 197.714-139.339 372.161-336.737 383.794h34.835c232.233 0 406.407-174.467 406.407-383.794 0-209.34-174.174-383.798-406.407-383.798"/><path fill="#00A344" d="M568.15 472.941s-23.223 23.257 0 46.527c11.612 23.246 34.835 11.632 46.446 11.632l139.339-116.309s23.225-11.62 0-46.525c0 0-104.503-174.448-278.68-69.773l-150.95 58.15s-174.175 81.406-81.282 209.34c0 0 23.222 23.265 58.058 46.514 0 0 139.341 116.295 162.563 127.932 0 0 116.117 58.147 197.397-34.88 0 0 174.176-174.449 185.787-209.35v-34.88s-11.611-34.904-58.057 11.622c0 0-69.67 81.406-104.506 116.307 0 0-46.446 58.15-104.504 11.615 0 0-34.835-11.615-139.339-116.299 0 0-46.448-34.88-11.614-81.394 0 0 104.507-93.053 162.564-46.527 0 0 34.833 11.623 46.447 23.256 0 0 23.222 23.271 0 34.892z"/></svg>