<svg xmlns="http://www.w3.org/2000/svg" width="200" height="200" class="icon" viewBox="0 0 1024 1024"><path fill="#1296db" d="M591.13 37.12c18.713 2.829 37.068 7.258 55.18 12.672 35.021 10.458 68.48 24.627 100.237 42.79 30.016 17.178 57.843 37.325 83.418 60.596 44.019 40.038 79.539 86.515 106.278 139.724 11.75 23.373 21.543 47.501 29.171 72.512 5.863 19.213 10.368 38.682 13.952 58.484 3.559 19.712 4.928 39.552 6.554 59.43 2.624 32.154-.435 64.064-5.235 95.68-5.67 37.338-16.269 73.42-30.976 108.365-21.658 51.481-51.38 97.613-89.203 138.585-40.384 43.75-87.079 78.976-140.762 105.024-28.506 13.837-57.933 24.807-88.563 32.896-17.933 4.736-36.135 7.796-54.298 11.239-8.998 1.702-9.331 1.19-9.331-7.847-.013-50.892 0-101.785-.09-152.69-.012-4.75.666-9.383 1.562-13.978 1.395-7.143 7.475-8.5 13.286-9.69 2.765-.563 5.696-.307 8.564-.307 37.606-.064 75.225-.09 112.832-.192 21.721-.051 37.772-10.061 49.51-28.02 24.435-37.414 49.075-74.687 73.574-112.063 8.64-13.184 17.05-26.51 25.626-39.744 12.147-18.74 11.75-37.415-.41-55.91-13.196-20.058-26.585-39.988-39.846-60.007-16.742-25.293-33.344-50.701-50.202-75.917-5.926-8.87-10.88-18.42-18.444-26.202-9.408-9.676-21.03-14.22-34.125-15.59-3.648-.384-7.347-.333-11.021-.333-101.184-.013-202.38.026-303.565-.128-5.133-.013-8.947 1.357-12.326 5.095-8.026 8.844-15.719 17.779-21.223 28.633-6.08 12.02-3.827 22.797 2.586 33.485 5.35 8.922 12.211 16.678 19.43 24.128 3.239 3.34 6.964 4.838 11.93 4.826 87.078-.167 174.17.307 261.248-.461 18.944-.167 31.757 7.513 42.1 21.747 17.714 24.41 32.92 50.47 48.742 76.096 5.85 9.472 5.273 19.994-.525 29.555-16.691 27.495-33.754 54.771-50.458 82.266-7.13 11.725-17.561 15.833-30.784 15.782-53.76-.179-107.52-.09-161.293-.013-16.908.026-30.092 6.272-36.07 23.194-2.662 7.54-3.277 15.5-3.277 23.5.026 73.793.013 147.572.013 221.364 0 2.048-.166 4.096.013 6.131.371 4.211-1.434 5.35-5.466 4.71-11.853-1.907-23.795-3.289-35.597-5.427-15.18-2.752-30.144-6.476-44.992-10.752-22.22-6.412-43.801-14.515-64.793-24.102-32.423-14.81-62.771-33.19-90.983-54.976-52.94-40.909-95.744-90.662-128.09-149.21-15.884-28.761-28.44-58.995-37.862-90.572-12.582-42.202-19.468-85.12-19.776-129.242-.192-26.163.666-52.224 4.621-78.042 5.607-36.595 15.143-72.256 29.184-106.56 17.395-42.521 40.397-81.804 69.018-117.824 17.984-22.63 37.965-43.366 59.558-62.412 32.474-28.634 68.429-52.25 107.635-70.784 26.394-12.48 53.607-22.644 81.908-30.106 22.464-5.926 45.132-10.214 68.147-13.082 5.76-.716 7.641.768 7.603 6.938-.256 51.917-.14 103.834-.154 155.75 0 20.788-4.057 24.717-25.088 24.653-32.704-.09-65.408-.243-98.124-.14-11.584.038-23.194.102-34.356 4.236-15.232 5.632-24.115 17.78-32.524 30.618-22.388 34.163-44.98 68.211-67.354 102.387a2173 2173 0 0 0-28.352 44.429c-11.354 18.304-10.266 36.416 1.318 54.323 23.68 36.62 47.834 72.934 72.27 109.056 10.406 15.373 20.364 31.053 30.745 46.451 8.384 12.429 20.352 18.919 35.072 21.67 11.405 2.138 22.758 1.69 34.15 1.69 94.848.077 189.709 0 284.557.154 4.698.013 8.397-1.178 11.392-4.48 9.536-10.535 18.227-21.466 22.938-35.367 3.29-9.702.998-18.112-3.124-26.316-4.838-9.626-11.712-17.92-19.225-25.677-3.392-3.495-7.027-4.749-11.866-4.736-86.477.128-172.94-.256-259.405.358-19.468.141-33.51-6.976-44.352-22.4-17.395-24.742-33.19-50.521-48.678-76.467-6.374-10.675-3.738-21.542 2.458-31.642 16.192-26.355 32.537-52.633 48.64-79.04 6.873-11.276 16.499-16.256 29.798-16.179 54.17.282 108.34.154 162.522.077 17.664-.026 30.515-7.885 35.379-21.594 2.931-8.281 3.891-16.934 3.891-25.74-.051-73.997-.026-147.981-.026-221.978 0-10.406-.23-10.752 9.754-9.933 1.216.103 2.675.448 3.891.5 3.789.793 3.789.793 9.959 2.073"/></svg>